<?xml version="1.0" standalone="no"?>
<!DOCTYPE svg PUBLIC "-//W3C//DTD SVG 20010904//EN"
 "http://www.w3.org/TR/2001/REC-SVG-20010904/DTD/svg10.dtd">
<svg version="1.0" xmlns="http://www.w3.org/2000/svg"
 width="2048.000000pt" height="2048.000000pt" viewBox="0 0 2048.000000 2048.000000"
 preserveAspectRatio="xMidYMid meet">
<metadata>
Created by potrace 1.11, written by Peter Selinger 2001-2013
</metadata>
<g transform="translate(0.000000,2048.000000) scale(0.100000,-0.100000)"
fill="#000000" stroke="none">
<path d="M2470 13815 c0 -4 299 -525 555 -965 81 -140 159 -275 173 -300 14
-25 55 -97 92 -160 37 -63 77 -131 87 -150 11 -19 71 -123 133 -230 61 -107
181 -314 265 -460 84 -146 172 -299 197 -340 24 -41 47 -82 51 -90 4 -8 17
-31 28 -50 30 -50 238 -408 262 -450 31 -57 396 -687 450 -780 27 -47 61 -105
75 -130 13 -25 39 -70 57 -100 37 -62 65 -110 131 -225 25 -44 59 -102 75
-130 16 -27 32 -57 36 -65 3 -8 11 -22 18 -30 7 -8 26 -40 42 -70 28 -51 98
-174 316 -550 83 -142 169 -292 219 -380 11 -19 37 -64 58 -100 21 -36 47 -81
58 -100 239 -421 352 -601 444 -705 134 -152 255 -256 407 -352 86 -55 242
-133 265 -133 7 0 16 -4 21 -9 12 -12 194 -66 255 -76 25 -4 54 -10 65 -13 11
-4 386 -8 833 -9 l813 -4 -27 48 c-16 26 -46 77 -67 112 -21 35 -43 74 -48 85
-5 12 -18 35 -28 51 -10 17 -127 219 -260 450 -247 429 -305 528 -322 555 -5
8 -16 28 -25 44 -9 17 -115 201 -236 410 -121 210 -232 401 -246 426 -13 25
-28 50 -32 55 -4 6 -21 35 -38 65 -16 30 -68 120 -114 200 -95 163 -311 537
-341 590 -11 19 -61 107 -112 195 -172 298 -235 407 -235 411 0 3 -17 33 -39
67 -21 34 -93 159 -161 277 -67 118 -135 235 -150 260 -16 25 -37 61 -48 81
-11 20 -114 198 -228 395 -114 198 -216 375 -227 394 -67 120 -473 822 -493
852 -13 21 -24 40 -24 43 0 3 -11 22 -23 43 -13 20 -35 57 -49 82 -14 25 -73
128 -132 230 -99 172 -114 192 -209 285 -214 211 -461 347 -752 415 -44 11
-93 22 -110 27 -29 7 -1705 15 -1705 8z"/>
<path d="M6804 13812 c32 -60 99 -173 136 -232 37 -59 266 -452 378 -650 22
-39 85 -149 112 -195 10 -16 117 -203 240 -415 122 -212 245 -425 274 -475 29
-49 139 -238 243 -420 399 -691 570 -987 690 -1195 69 -118 161 -278 205 -355
45 -77 91 -157 104 -177 13 -21 24 -40 24 -43 0 -3 11 -22 23 -43 13 -20 35
-57 49 -82 14 -25 66 -115 115 -200 49 -85 151 -261 225 -390 75 -129 184
-318 242 -418 58 -101 106 -185 106 -187 0 -1 25 -42 55 -91 101 -166 128
-209 145 -239 171 -301 328 -561 388 -645 214 -295 524 -523 857 -629 214 -69
161 -66 1110 -66 l860 0 90 23 c139 35 238 69 333 114 48 23 89 42 92 42 36 9
329 219 346 248 4 7 -4 4 -17 -8 -104 -91 -291 -176 -419 -191 -108 -13 -239
-6 -325 18 -179 49 -275 106 -414 248 -103 106 -139 160 -298 441 -11 19 -34
58 -50 86 -17 27 -41 70 -55 95 -38 66 -85 147 -188 324 -51 88 -103 178 -115
200 -13 22 -80 139 -150 260 -70 121 -136 236 -147 255 -46 81 -516 894 -578
1000 -37 63 -78 135 -92 160 -14 25 -74 128 -133 230 -59 102 -119 205 -133
230 -75 134 -438 760 -458 792 -13 21 -24 40 -24 42 0 3 -34 62 -75 131 -41
70 -75 129 -75 132 0 3 -8 17 -18 31 -11 15 -32 52 -49 82 -17 30 -95 168
-175 305 -80 138 -164 284 -188 325 -23 41 -50 89 -60 105 -9 17 -74 128 -144
247 -69 120 -126 221 -126 225 0 3 -6 14 -14 22 -7 9 -28 43 -46 76 -106 194
-247 369 -406 503 -149 125 -415 263 -594 308 -23 6 -151 34 -185 41 -40 9
-1696 13 -1691 5z"/>
<path d="M9776 13810 c-51 -16 -105 -61 -127 -107 -18 -37 -21 -56 -16 -116 4
-71 6 -75 141 -306 75 -128 136 -235 136 -236 0 -2 18 -34 40 -71 23 -38 45
-76 50 -84 18 -31 154 -266 170 -295 9 -16 66 -115 127 -220 60 -104 121 -210
135 -235 14 -25 71 -123 127 -219 55 -96 101 -176 101 -179 0 -3 6 -13 14 -21
7 -9 30 -47 51 -86 21 -38 48 -86 60 -105 12 -19 35 -60 52 -90 17 -30 79
-138 138 -240 130 -225 212 -367 430 -745 92 -159 208 -360 258 -445 49 -85
101 -175 115 -200 14 -25 90 -157 170 -295 80 -137 154 -266 165 -285 11 -19
70 -123 132 -230 62 -107 122 -211 133 -230 11 -19 93 -161 182 -315 89 -154
170 -296 181 -315 11 -19 24 -42 29 -50 5 -8 49 -82 96 -165 48 -82 95 -163
104 -180 10 -16 67 -115 127 -220 150 -261 156 -270 242 -356 124 -124 265
-181 441 -178 202 3 394 82 539 222 123 118 186 219 643 1017 38 67 118 205
128 220 7 13 100 173 205 355 130 226 243 421 256 443 9 15 68 117 131 227 63
110 141 245 173 300 32 55 67 116 78 135 10 19 34 60 52 90 18 30 44 74 57 97
25 46 203 355 318 553 40 69 82 141 93 160 10 19 110 193 222 385 111 193 236
409 277 480 41 72 135 234 208 360 73 127 141 244 150 260 23 40 84 146 130
225 21 36 92 155 157 265 174 291 386 686 397 740 3 11 8 38 14 60 22 97 -17
189 -95 221 -27 12 -681 14 -4070 13 -2221 0 -4051 -5 -4067 -9z m2398 -2669
c28 -23 32 -12 -100 -241 -50 -85 -95 -164 -101 -175 -113 -203 -111 -202
-345 -202 l-168 0 -13 26 c-7 14 -40 71 -72 126 -248 425 -272 470 -253 475
11 3 248 5 528 4 401 0 512 -3 524 -13z m988 10 c4 -1 13 -8 22 -16 19 -19 14
-32 -54 -150 -29 -49 -66 -115 -83 -145 -16 -30 -33 -59 -37 -65 -5 -5 -20
-32 -35 -60 -61 -111 -95 -154 -132 -173 -36 -18 -64 -20 -428 -20 -216 0
-398 5 -407 10 -10 5 -18 17 -18 28 0 21 280 512 312 547 42 45 74 48 475 46
208 -1 381 -2 385 -2z m795 0 c13 -1 43 -29 43 -40 0 -4 -30 -59 -66 -122 -36
-62 -76 -131 -88 -152 -11 -21 -25 -46 -31 -55 -5 -10 -32 -55 -59 -102 -58
-102 -71 -117 -116 -140 -31 -15 -68 -17 -324 -17 -160 0 -298 2 -308 5 -27 7
-22 51 12 105 17 26 30 49 30 51 0 8 234 403 248 419 21 24 49 39 85 46 22 5
522 6 574 2z m828 -11 c8 -7 15 -19 15 -27 0 -18 -299 -534 -319 -551 -46 -37
-73 -39 -367 -39 -159 0 -297 4 -306 9 -29 14 -21 41 38 145 32 54 97 168 146
253 49 85 100 166 113 179 39 40 91 46 388 45 207 -1 280 -4 292 -14z m800 0
c8 -7 15 -19 15 -28 0 -13 -69 -142 -127 -237 -7 -11 -17 -29 -22 -40 -6 -11
-43 -76 -83 -145 -103 -176 -81 -168 -440 -168 -156 0 -293 3 -305 5 -34 8
-36 36 -7 90 136 242 280 482 302 500 41 34 80 38 377 37 207 -1 278 -4 290
-14z m-3814 -711 c22 -22 24 -16 -73 -182 l-40 -69 -25 49 c-14 26 -37 65 -50
85 -12 21 -23 40 -23 43 0 3 -11 23 -25 45 -14 22 -25 41 -25 43 0 2 55 4 121
4 106 1 124 -2 140 -18z m801 13 c4 -1 9 -11 13 -21 4 -14 -21 -67 -84 -177
-50 -86 -91 -159 -92 -163 0 -3 -21 -37 -47 -76 -70 -104 -74 -105 -328 -105
l-212 0 -40 68 c-21 37 -47 82 -56 100 l-17 33 46 75 c25 41 45 77 45 79 0 2
20 37 44 77 44 71 70 97 111 109 17 5 596 5 617 1z m801 -6 c9 -4 17 -15 17
-23 0 -9 -37 -79 -82 -157 -44 -77 -89 -154 -98 -171 -53 -92 -65 -112 -84
-134 -42 -48 -65 -51 -375 -51 -260 0 -291 2 -310 18 l-22 17 29 55 c16 30 77
136 134 235 91 156 110 182 145 201 38 20 53 21 334 19 162 0 302 -5 312 -9z
m1814 -8 c16 -17 16 -20 -7 -60 -72 -131 -234 -406 -248 -421 -42 -47 -35 -47
-874 -47 -525 0 -796 3 -809 10 -20 11 -26 49 -10 66 8 8 102 167 179 304 64
113 83 136 131 156 18 7 273 10 823 10 742 -1 798 -2 815 -18z m-2575 -609
c25 -13 20 -51 -15 -106 -13 -21 -35 -58 -49 -83 -67 -120 -162 -277 -176
-294 -10 -10 -30 -25 -46 -33 -35 -18 -130 -21 -150 -4 -8 7 -47 69 -88 139
-40 70 -77 134 -83 144 -5 9 -17 29 -26 45 -8 15 -27 48 -41 73 -33 57 -25 83
34 110 39 18 68 20 331 20 190 0 295 -4 309 -11z m806 -1 c16 -16 15 -49 -2
-74 -8 -11 -27 -43 -43 -70 -167 -295 -199 -345 -233 -365 -33 -20 -49 -21
-337 -21 -307 -1 -333 2 -333 37 0 7 52 101 115 210 63 108 115 200 115 204 0
14 55 64 84 77 42 18 616 20 634 2z m1405 -2 c9 -7 17 -19 17 -26 0 -14 -235
-425 -259 -454 -45 -52 -31 -51 -675 -52 -543 0 -600 1 -619 16 -19 15 -19 19
-5 46 32 63 241 420 255 436 43 48 39 48 673 47 479 0 598 -2 613 -13z m-2355
-618 c19 -19 14 -37 -35 -122 -44 -76 -59 -95 -74 -96 -7 0 -122 196 -127 218
-5 17 219 17 236 0z m806 -10 c12 -20 14 -17 -139 -283 -54 -93 -105 -178
-114 -189 -40 -45 -65 -50 -278 -50 l-203 -1 -17 25 c-36 51 -103 175 -103
191 0 14 99 193 141 255 50 73 54 74 398 71 276 -2 305 -4 315 -19z m1200 0
c13 -21 -2 -50 -143 -293 -65 -112 -111 -180 -135 -200 l-37 -30 -495 0 c-272
0 -503 3 -514 7 -11 4 -23 14 -26 23 -4 9 36 89 99 198 152 265 157 273 196
296 35 20 46 21 540 18 464 -2 505 -3 515 -19z m-1158 -623 c5 -20 -19 -68
-119 -242 -132 -230 -164 -269 -227 -276 -62 -7 -86 9 -126 81 -21 37 -79 139
-131 228 -51 89 -93 170 -93 182 0 48 20 51 366 52 l323 0 7 -25z m797 7 c15
-17 15 -21 -6 -58 -37 -66 -116 -206 -148 -259 -16 -27 -44 -76 -61 -108 -27
-48 -42 -62 -83 -81 -49 -23 -56 -23 -330 -21 -343 3 -313 0 -321 29 -5 22 30
91 165 316 11 19 32 57 47 84 27 51 66 93 99 107 11 4 155 8 321 8 278 1 302
0 317 -17z m-354 -621 c12 -21 8 -29 -82 -186 -85 -147 -88 -148 -308 -150
-97 0 -189 3 -205 7 -24 6 -41 26 -84 100 -78 132 -81 139 -64 175 8 16 32 39
52 51 36 21 48 22 359 22 304 0 323 -1 332 -19z"/>
</g>
</svg>
